<mxfile host="app.diagrams.net" modified="2024-01-01T10:09:02.313Z" agent="Mozilla/5.0 (Windows NT 10.0; Win64; x64) AppleWebKit/537.36 (KHTML, like Gecko) Chrome/120.0.0.0 Safari/537.36" etag="8sD6aCSM3afsZs0YNaLp" version="22.1.16" type="github">
  <diagram name="Page-1" id="oy4V3nUh_kg0SLqmpCfP">
    <mxGraphModel dx="1050" dy="565" grid="1" gridSize="10" guides="1" tooltips="1" connect="1" arrows="1" fold="1" page="1" pageScale="1" pageWidth="827" pageHeight="1169" math="0" shadow="0">
      <root>
        <mxCell id="0" />
        <mxCell id="1" parent="0" />
        <mxCell id="_ICLHOJA3EWHEjshtR3B-1" value="" style="ellipse;whiteSpace=wrap;html=1;aspect=fixed;" vertex="1" parent="1">
          <mxGeometry x="80" y="160" width="80" height="80" as="geometry" />
        </mxCell>
        <mxCell id="_ICLHOJA3EWHEjshtR3B-2" value="" style="ellipse;whiteSpace=wrap;html=1;aspect=fixed;" vertex="1" parent="1">
          <mxGeometry x="80" y="280" width="80" height="80" as="geometry" />
        </mxCell>
        <mxCell id="_ICLHOJA3EWHEjshtR3B-3" value="" style="ellipse;whiteSpace=wrap;html=1;aspect=fixed;" vertex="1" parent="1">
          <mxGeometry x="80" y="410" width="80" height="80" as="geometry" />
        </mxCell>
        <mxCell id="_ICLHOJA3EWHEjshtR3B-4" value="" style="ellipse;whiteSpace=wrap;html=1;aspect=fixed;" vertex="1" parent="1">
          <mxGeometry x="80" y="530" width="80" height="80" as="geometry" />
        </mxCell>
        <mxCell id="_ICLHOJA3EWHEjshtR3B-5" value="" style="rhombus;whiteSpace=wrap;html=1;" vertex="1" parent="1">
          <mxGeometry x="240" y="310" width="110" height="130" as="geometry" />
        </mxCell>
        <mxCell id="_ICLHOJA3EWHEjshtR3B-7" value="" style="shape=cylinder3;whiteSpace=wrap;html=1;boundedLbl=1;backgroundOutline=1;size=15;" vertex="1" parent="1">
          <mxGeometry x="265" y="345" width="60" height="60" as="geometry" />
        </mxCell>
        <mxCell id="_ICLHOJA3EWHEjshtR3B-8" value="" style="ellipse;shape=cloud;whiteSpace=wrap;html=1;" vertex="1" parent="1">
          <mxGeometry x="390" y="190" width="120" height="80" as="geometry" />
        </mxCell>
        <mxCell id="_ICLHOJA3EWHEjshtR3B-9" value="" style="shape=cylinder3;whiteSpace=wrap;html=1;boundedLbl=1;backgroundOutline=1;size=15;" vertex="1" parent="1">
          <mxGeometry x="410" y="340" width="60" height="50" as="geometry" />
        </mxCell>
        <mxCell id="_ICLHOJA3EWHEjshtR3B-10" value="" style="shape=cylinder3;whiteSpace=wrap;html=1;boundedLbl=1;backgroundOutline=1;size=15;" vertex="1" parent="1">
          <mxGeometry x="410" y="440" width="80" height="65" as="geometry" />
        </mxCell>
        <mxCell id="_ICLHOJA3EWHEjshtR3B-11" value="" style="shape=cylinder3;whiteSpace=wrap;html=1;boundedLbl=1;backgroundOutline=1;size=15;" vertex="1" parent="1">
          <mxGeometry x="430" y="332.5" width="60" height="50" as="geometry" />
        </mxCell>
        <mxCell id="_ICLHOJA3EWHEjshtR3B-13" value="" style="rounded=0;whiteSpace=wrap;html=1;" vertex="1" parent="1">
          <mxGeometry x="580" y="335" width="120" height="60" as="geometry" />
        </mxCell>
        <mxCell id="_ICLHOJA3EWHEjshtR3B-14" value="" style="rounded=0;whiteSpace=wrap;html=1;" vertex="1" parent="1">
          <mxGeometry x="750" y="332.5" width="120" height="60" as="geometry" />
        </mxCell>
        <mxCell id="_ICLHOJA3EWHEjshtR3B-15" value="" style="rounded=0;whiteSpace=wrap;html=1;" vertex="1" parent="1">
          <mxGeometry x="900" y="330" width="120" height="60" as="geometry" />
        </mxCell>
        <mxCell id="_ICLHOJA3EWHEjshtR3B-16" value="" style="ellipse;whiteSpace=wrap;html=1;aspect=fixed;" vertex="1" parent="1">
          <mxGeometry x="1041" y="257.5" width="200" height="200" as="geometry" />
        </mxCell>
      </root>
    </mxGraphModel>
  </diagram>
</mxfile>
